<svg width="440" height="88" viewBox="0 0 440 88" fill="none" xmlns="http://www.w3.org/2000/svg">
<path d="M61.1807 87.1002H26.5L22.2453 81.1227L20.1406 71.5466L15.9314 68.4359V50.8084L12.7745 48.7346L6.31386 12.1176L4.20924 7.96995H1.05231L0 1.74851L22.2453 4.14763L31.7161 22.8119L36.9776 36.2917L41.1868 38.3656L50.6576 54.9561H56.9715L61.1807 50.8084V46.6608L68.5469 36.2917L71.7038 26.9596H68.5469L65.39 24.8858V0L71.7038 0L75.913 4.14763V33.181L73.8084 34.2179L71.7038 48.7346L68.5469 50.8084L65.39 68.4359L61.1807 87.1002Z" fill="#A5AA0A"/>
<path d="M107.477 53.4402V39.1025H85.8766L78.6766 43.4662V49.0766L80.4766 49.6999L79.8766 59.0506L78.0766 68.4012L74.4766 72.7649L75.6766 87.1025H107.477V85.8558L106.277 75.8818L105.677 74.635H99.6766L97.2766 79.622L95.4766 77.7519H91.2766L89.4766 75.8818L85.8766 65.9077V62.1675H89.4766V64.0376H92.4766V65.9077H95.4766V58.4272H92.4766L91.2766 59.0506H84.6766L83.4766 55.3103V49.0766H87.6766L89.4766 52.1934H96.6766V53.4402H107.477Z" fill="#A5AA0A"/>
<path d="M114 69.7714V86.8907H128.704C129.88 86.8907 130.827 85.9125 131.154 85.4233L132.134 81.5103V62.4345H135.075L138.506 63.4127L143.407 65.8584L142.917 70.7496L141.937 73.6844L139.486 77.1082V82.4886L140.957 86.4016L151.739 86.8907L154.19 85.4233V82.4886H151.739L149.289 79.5538L148.308 74.6626L144.877 76.5L145.5 74L147.022 72.5L148.002 72L148.308 70.2605L144.877 62.4345L138.506 60.9671L141.141 61.04L143.101 59.0835L148.002 57.6161L149.963 55.1705V40.9858L147.022 37.0728L137.036 37L135.075 39.9347L133.115 45.3151L131.154 47.7607V53.1411L128.704 55.0976V57.5432H133.115V48.2499H138.506L142.917 54.1194V55.5867H139.976L137.036 59.0106L135.075 60.9671H132.134V59.0106H127.233L125.763 59.4997L119.881 65.8584L114 69.7714Z" fill="#A5AA0A"/>
<path d="M305 88L306.8 47.6477L311.6 45.8409L320 42.8295L332 35H336.2L337.4 36.2045V55.4773L330.2 56.0795V53.6705L334.4 49.4545L335.6 45.8409L333.8 43.4318L331.4 42.8295L324.8 44.0341L323.6 47.6477L320 53.0682L320.6 59.0909H329L331.4 57.2841H336.2L337.4 58.4886L338 60.2955L333.8 62.1023L333.2 65.1136H336.2L344 75.9545V88H325.4V80.7727L324.2 77.1591L323.6 74.75L320.6 74.1477L320 71.7386H316.4V88H305Z" fill="#A5AA0A"/>
<path d="M160 87.4235V66.9294L162.391 65.3529V63.7765L174.348 51.9529H183.913V57.4706L186.304 63.7765L187.899 76.3882H191.087L194.275 74.0235L200.652 66.9294L206.232 61.4118L207.029 57.4706L203.841 51.9529L197.464 44.8588L191.087 39.3412L183.913 38.5529V50.3765H174.348V42.4941L177.536 40.9176L179.13 31.4588L188.696 23.5765L193.478 22L206.232 23.5765L215 32.2471V59.0471L208.623 65.3529L207.029 71.6588L200.652 87.4235H183.913H179.928H160Z" fill="#A5AA0A"/>
<path d="M222 35.1698L224.133 33.0566L244.4 32L246 44.6792H238L235.333 48.9057L234.267 50.4906V63.6981L238 70.566L239.067 76.3774H246V82.717L235.333 88H214V76.3774H224.133V65.283L226.267 62.1132H232.133V60H227.867L231.067 47.3208H233.2V43.0943L230 42.566L222 40.9811V35.1698Z" fill="#A5AA0A"/>
<path d="M365.792 52.8485L370.472 46.7879H371.642L372.811 50.4242L371.057 54.6667V66.7879L372.811 68.6061V83.1515V88H350V71.6364H352.925L362.283 58.303L369.302 57.697V55.8788H365.792L363.453 54.6667L365.792 52.8485Z" fill="#A5AA0A"/>
<path d="M377.491 40.7273L372.811 39.5152L373.396 28.6061L379.245 28L381 29.8182L379.83 40.7273H377.491Z" fill="#A5AA0A"/>
<path d="M277.8 34.4086L281.4 32H295.8L298.8 34.4086L297.6 54.2796L289.8 54.8817L288.6 53.0753L285.6 50.0645L281.4 46.4516H274.2L270.6 47.6559L267.6 50.0645L265.8 59.6989L267.6 60.9032L276.6 75.957L281.4 77.7634L283.2 75.957L287.4 71.7419L290.4 70.5376L291.6 66.3226H288.6H276.6L275.4 63.914L288.6 60.9032L291.6 58.4946L297.6 57.2903L300 59.6989V69.3333H293.4V74.1505L291.6 75.957L288.6 80.172L283.2 84.3871L279.6 88H257.4L252 82.5806V63.914V59.6989L259.2 54.2796L261.6 50.0645L267.6 44.043L271.8 41.6344L273 38.0215L277.8 34.4086Z" fill="#A5AA0A"/>
<path d="M439.359 33.1522V12H412.588L408.362 17.6406L404.135 19.0507L401.317 21.166L392.863 26.8066V31.037H399.908V28.2167L404.135 26.8066V21.166H406.248V26.8066H412.588L415.406 28.2167L419.633 31.037H423.86L425.269 35.2674H436.541L439.359 33.1522Z" fill="#A5AA0A"/>
<path d="M388.636 33.1522H397.794V36.6776L402.726 43.0233L407.657 43.7283L408.362 47.2537H409.77L412.588 43.0233H418.224V40.908H425.269H429.496L433.723 43.0233L436.541 45.8436V71.2262H433.723V78.277L422 87.4429H395.681L385.818 86.0328L383 83.2125V59.24L385.818 55.7146L408.362 57.1247V62.7653L412.588 69.111L418.224 73.3415H425.269L429.496 71.2262V69.111L431.61 62.7653L433.723 61.3552V55.7146L431.61 53.5994L427.383 50.7791V44.4334H425.269L423.86 49.3689H421.042L418.224 47.2537H412.588L411.179 49.3689H390.749L385.818 45.8436L387.227 36.6776L388.636 33.1522Z" fill="#A5AA0A"/>
</svg>
