<svg width="60" height="60" viewBox="0 0 60 60" fill="none" xmlns="http://www.w3.org/2000/svg">
<path d="M36.0006 17L34.0004 16L29.5 30L31.5 32L28.5858 33.2148L25.5004 39L27.5004 42L28.9998 40.8754L29.5 38.5L30 41.2217L34.0004 47L40.5004 48.5L43 48L44 43H40.5004L38.0004 40.5L36.5004 34L45.0006 18.4999L36.0006 17Z" fill="#716A19"/>
<path d="M12 18.2147L26.9998 16.5L28.9998 18.7148L27.9998 22.2147L26 31.2148L23.4998 33.2148L18 34.7148L24.5 29.7148H15.4998L25.4998 25.7147L14.5 24.2148L25.4998 21.2147L12 18.2147Z" fill="#716A19"/>
</svg>
