<svg width="60" height="60" viewBox="0 0 60 60" fill="none" xmlns="http://www.w3.org/2000/svg">
<path d="M44.2564 45.675L38.0897 39.975L29.0769 42.35V39.975L36.6667 36.65L39.9872 29.05H41.8846L39.9872 38.075L45.6795 44.25H47.5769L49 45.675V49H45.6795L44.2564 48.05V45.675Z" fill="#716A19"/>
<path d="M30.9744 35.7H34.2949L26.2308 26.2L36.1923 34.275L36.6667 31.9L20.5385 16.7L12.9487 13.375L16.2692 19.55L30.9744 35.7Z" fill="#716A19"/>
<path d="M20.5385 39.025L12 47.1V42.35L22.9103 29.05L26.2308 32.85L22.9103 36.65H20.5385V39.025Z" fill="#716A19"/>
<path d="M29.0769 23.35L31.4487 25.725L33.8205 24.775V22.4L41.8846 11L29.0769 21.45V23.35Z" fill="#716A19"/>
</svg>
