<svg width="33" height="33" viewBox="0 0 33 33" fill="none" xmlns="http://www.w3.org/2000/svg">
<rect width="33" height="33" fill="#C1C1C1"/>
<path d="M22.2227 15.5684V21.2031C22.0013 21.4701 21.6595 21.7598 21.1973 22.0723C20.735 22.3783 20.1393 22.6419 19.4102 22.8633C18.681 23.0846 17.7988 23.1953 16.7637 23.1953C15.8457 23.1953 15.0091 23.0456 14.2539 22.7461C13.4987 22.4401 12.8477 21.9941 12.3008 21.4082C11.7604 20.8223 11.3438 20.1061 11.0508 19.2598C10.7578 18.4069 10.6113 17.4336 10.6113 16.3398V15.4512C10.6113 14.3574 10.7513 13.3841 11.0312 12.5312C11.3177 11.6784 11.7246 10.959 12.252 10.373C12.7793 9.78711 13.4076 9.34115 14.1367 9.03516C14.8659 8.72917 15.6764 8.57617 16.5684 8.57617C17.8053 8.57617 18.821 8.77799 19.6152 9.18164C20.4095 9.57878 21.015 10.1322 21.4316 10.8418C21.8548 11.5449 22.1152 12.3522 22.2129 13.2637H19.3711C19.2995 12.7819 19.1628 12.362 18.9609 12.0039C18.7591 11.6458 18.4694 11.3659 18.0918 11.1641C17.7207 10.9622 17.2389 10.8613 16.6465 10.8613C16.1582 10.8613 15.722 10.9622 15.3379 11.1641C14.9603 11.3594 14.6413 11.6491 14.3809 12.0332C14.1204 12.4173 13.9219 12.8926 13.7852 13.459C13.6484 14.0254 13.5801 14.6829 13.5801 15.4316V16.3398C13.5801 17.082 13.6517 17.7396 13.7949 18.3125C13.9382 18.8789 14.1497 19.3574 14.4297 19.748C14.7161 20.1322 15.0677 20.4219 15.4844 20.6172C15.901 20.8125 16.3861 20.9102 16.9395 20.9102C17.4017 20.9102 17.7858 20.8711 18.0918 20.793C18.4043 20.7148 18.6549 20.6204 18.8438 20.5098C19.0391 20.3926 19.1888 20.2819 19.293 20.1777V17.6582H16.6172V15.5684H22.2227Z" fill="#3F3F3F"/>
</svg>
