<svg width="33" height="33" viewBox="0 0 33 33" fill="none" xmlns="http://www.w3.org/2000/svg">
<rect width="33" height="33" fill="#C1C1C1"/>
<path d="M13.7461 14.5723V16.8574H6.32422V14.5723H13.7461ZM7.19336 8.78125V23H4.26367V8.78125H7.19336ZM15.8359 8.78125V23H12.916V8.78125H15.8359ZM23.9219 17.9316H20.2988V15.6465H23.9219C24.4818 15.6465 24.9375 15.5553 25.2891 15.373C25.6406 15.1842 25.8978 14.9238 26.0605 14.5918C26.2233 14.2598 26.3047 13.8854 26.3047 13.4688C26.3047 13.0456 26.2233 12.6517 26.0605 12.2871C25.8978 11.9225 25.6406 11.6296 25.2891 11.4082C24.9375 11.1868 24.4818 11.0762 23.9219 11.0762H21.3145V23H18.3848V8.78125H23.9219C25.0352 8.78125 25.9889 8.98307 26.7832 9.38672C27.584 9.78385 28.196 10.334 28.6191 11.0371C29.0423 11.7402 29.2539 12.5443 29.2539 13.4492C29.2539 14.3672 29.0423 15.1615 28.6191 15.832C28.196 16.5026 27.584 17.0202 26.7832 17.3848C25.9889 17.7493 25.0352 17.9316 23.9219 17.9316Z" fill="#3F3F3F"/>
</svg>
