<svg width="33" height="33" viewBox="0 0 33 33" fill="none" xmlns="http://www.w3.org/2000/svg">
<rect width="33" height="33" fill="#C1C1C1"/>
<path d="M7.38867 8.78125L10.0645 13.7422L12.7402 8.78125H16.0898L11.959 15.832L16.1973 23H12.8184L10.0645 17.9414L7.31055 23H3.91211L8.16016 15.832L4.01953 8.78125H7.38867ZM23.209 17.9316H19.5859V15.6465H23.209C23.7689 15.6465 24.2246 15.5553 24.5762 15.373C24.9277 15.1842 25.1849 14.9238 25.3477 14.5918C25.5104 14.2598 25.5918 13.8854 25.5918 13.4688C25.5918 13.0456 25.5104 12.6517 25.3477 12.2871C25.1849 11.9225 24.9277 11.6296 24.5762 11.4082C24.2246 11.1868 23.7689 11.0762 23.209 11.0762H20.6016V23H17.6719V8.78125H23.209C24.3223 8.78125 25.276 8.98307 26.0703 9.38672C26.8711 9.78385 27.4831 10.334 27.9062 11.0371C28.3294 11.7402 28.541 12.5443 28.541 13.4492C28.541 14.3672 28.3294 15.1615 27.9062 15.832C27.4831 16.5026 26.8711 17.0202 26.0703 17.3848C25.276 17.7493 24.3223 17.9316 23.209 17.9316Z" fill="#3F3F3F"/>
</svg>
