<svg width="65" height="65" viewBox="0 0 65 65" fill="none" xmlns="http://www.w3.org/2000/svg">
<path d="M18.2367 33.4777L22.9909 35.2505C22.3962 34.6596 19.4257 32.2957 19.4257 31.7048C19.4257 31.232 21.8025 29.1439 22.9909 28.159C22.3966 28.5529 20.6138 29.4591 18.2367 29.9319C15.2653 30.5228 1.00259 31.7048 4.56826 31.7048C7.4208 31.7048 14.8691 32.8867 18.2367 33.4777Z" fill="white"/>
<path d="M22.9921 39.3873L25.9635 38.7963L25.3692 41.1602L14.6722 50.0247L22.9921 39.3873Z" fill="white"/>
<path d="M34.2834 48.8427L36.0663 44.115C35.472 44.7065 33.0949 47.6603 32.5006 47.6603C32.0252 47.6603 29.9254 45.2968 28.9349 44.115C29.3311 44.706 30.2423 46.4789 30.7178 48.8427C31.312 51.7975 32.5006 65.9807 32.5006 62.4349C32.5006 59.5983 33.6892 52.1915 34.2834 48.8427Z" fill="white"/>
<path d="M40.2262 41.7507L39.6319 38.7959L42.0091 39.3868L50.9233 50.0242L40.2262 41.7507Z" fill="white"/>
<path d="M46.7633 29.9319L42.0091 28.159C42.6038 28.7499 45.5743 31.1138 45.5743 31.7048C45.5743 32.1775 43.1975 34.2656 42.0091 35.2505C42.6034 34.8566 44.3862 33.9504 46.7633 33.4777C49.7347 32.8867 63.9974 31.7048 60.4317 31.7048C57.5792 31.7048 50.1309 30.5228 46.7633 29.9319Z" fill="white"/>
<path d="M42.6034 24.0222L39.6319 24.6132L40.2262 22.2493L50.9233 13.3849L42.6034 24.0222Z" fill="white"/>
<path d="M28.3363 31.7048L31.3077 29.9319L32.4962 21.6584L33.6848 29.9319L36.0619 31.7048L33.6848 34.0686L32.4962 41.1602L31.3077 34.0686L28.3363 31.7048Z" fill="white"/>
<path d="M25.3649 25.2041L24.7706 22.2493L14.0736 13.9758L22.9878 24.6132L25.3649 25.2041Z" fill="white"/>
<path d="M28.9305 19.885L30.7134 15.1573C31.3077 11.8085 32.4962 4.40172 32.4962 1.56509C32.4962 -1.98069 33.6848 12.2025 34.2791 15.1573C34.7545 17.5211 35.6657 19.294 36.0619 19.885C35.0714 18.7032 32.9717 16.3397 32.4962 16.3397C31.9019 16.3397 29.5248 19.2935 28.9305 19.885Z" fill="white"/>
</svg>
