<svg width="65" height="65" viewBox="0 0 65 65" fill="none" xmlns="http://www.w3.org/2000/svg">
<path fill-rule="evenodd" clip-rule="evenodd" d="M15.4287 48.1429C15.4287 38.6751 23.1038 31 32.5716 31C42.0393 31 49.7144 38.6751 49.7144 48.1429C49.7144 55.8703 44.6015 62.4036 37.5742 64.5443L36.4882 59.3092C35.6066 55.0591 29.5366 55.0591 28.655 59.3092L27.569 64.5443C20.5416 62.4036 15.4287 55.8703 15.4287 48.1429ZM32.5716 56.7143C39.199 56.7143 44.5716 51.3417 44.5716 44.7143C44.5716 38.0869 39.199 32.7143 32.5716 32.7143C25.9442 32.7143 20.5716 38.0869 20.5716 44.7143C20.5716 51.3417 25.9442 56.7143 32.5716 56.7143Z" fill="white"/>
<path d="M32.5718 32.7143C19.5252 32.7143 23.1432 42.7143 26.5718 47.2857C26.8572 45.2858 28.3999 42.1432 32.5709 42.1432C36.8567 42.1432 37.7138 45.8572 37.7138 47.2857C41.4284 42.1429 45.4286 32.7143 32.5718 32.7143Z" fill="white"/>
<path d="M22.2857 31.8571C15.4286 34.6 13.1429 42.7143 12.8571 46.4286C12.5714 46.1429 12 44.3714 12 39.5714C12 34.7714 15.4286 32.4286 17.1429 31.8571H16.2857C15.1429 31.8571 13.0286 30.8286 13.7143 26.7143C14.4 22.6 18.5714 21 20.5714 20.7143C19.4286 21.2857 17.1429 22.9429 17.1429 25C17.1429 27.0571 20.5714 29.8571 22.2857 31V31.8571Z" fill="white"/>
<path d="M43.7143 31V31.8571C46 33 51.0857 37.5143 53.1429 46.4286C53.4286 46.1429 54 44.3714 54 39.5714C53.6626 37.5276 52.1617 33.1235 48.8571 31.8571H49.7143C50.8571 31.8571 52.9714 30.8286 52.2857 26.7143C51.6 22.6 47.4286 21 45.4286 20.7143C46.5714 21.2857 48.8571 22.9429 48.8571 25C48.8571 27.0571 45.4286 29.8571 43.7143 31Z" fill="white"/>
<path d="M32.5714 28.4286C29.8286 28.4286 25.7143 30.1429 24 31C24 30.7143 24.8571 29.1143 28.2857 25C31.7143 20.8857 30.2857 18.1429 29.1429 17.2857C27.7143 16.4286 24.8571 13.6857 24.8571 9.57143C24.8571 5.45714 29.4286 2.14286 31.7143 1C29.1429 4.42857 29.1429 7 29.1429 8.71429C29.1429 10.4286 33.4286 13.8571 38.5714 19C42.6857 23.1143 42.5714 28.7143 42 31L41.1429 31.8571C39.4286 30.7143 35.3143 28.4286 32.5714 28.4286Z" fill="white"/>
</svg>
