<svg width="65" height="65" viewBox="0 0 65 65" fill="none" xmlns="http://www.w3.org/2000/svg">
<path d="M32 28.1875C37.1115 28.4026 42.3653 31.7365 43.5 32.6875L34.8992 12.8373C34.8057 12.6215 34.593 12.4819 34.3578 12.4819C34.1966 12.4819 34.0424 12.5479 33.931 12.6645L32.7234 13.9297C32.3294 14.3424 31.6706 14.3424 31.2766 13.9297L30.0744 12.6702C29.9596 12.5499 29.8006 12.4819 29.6343 12.4819C29.3963 12.4819 29.1801 12.6207 29.0811 12.8372L20 32.6875C22.8412 30.7031 27.5558 28.0005 32 28.1875Z" fill="white"/>
<path d="M31.9588 1H31.8898C31.6039 1 31.3317 1.12233 31.142 1.3361L28.2677 4.57364C28.096 4.76713 28.0059 5.01965 28.0164 5.27817L28.0299 5.61115C28.0389 5.83135 28.1203 6.04242 28.2616 6.21157L31.3208 9.87423C31.4866 10.0727 31.7319 10.1875 31.9905 10.1875C32.26 10.1875 32.5143 10.063 32.6796 9.85022L35.5418 6.16634C35.6781 5.99088 35.7521 5.77501 35.7521 5.55281V5.24624C35.7521 5.00687 35.6663 4.77544 35.5101 4.59399L32.7168 1.34776C32.5269 1.12698 32.2501 1 31.9588 1Z" fill="white"/>
<path fill-rule="evenodd" clip-rule="evenodd" d="M31.4061 62.4997C39.3624 62.4997 45.8122 56.0499 45.8122 48.0936C45.8122 40.1373 39.3624 33.6875 31.4061 33.6875C23.4498 33.6875 17 40.1373 17 48.0936C17 56.0499 23.4498 62.4997 31.4061 62.4997ZM31.4061 58.8981C37.3733 58.8981 42.2106 54.0608 42.2106 48.0936C42.2106 42.1264 37.3733 37.289 31.4061 37.289C25.4389 37.289 20.6015 42.1264 20.6015 48.0936C20.6015 54.0608 25.4389 58.8981 31.4061 58.8981Z" fill="white"/>
</svg>
