<svg width="65" height="65" viewBox="0 0 65 65" fill="none" xmlns="http://www.w3.org/2000/svg">
<path d="M33.3573 60.1167C32.9599 55.3487 29.2184 44.2233 27.3973 39.2567C28.5562 39.7533 31.3706 40.7467 33.3573 40.7467C35.3439 40.7467 38.1584 39.7533 39.3173 39.2567C37.3306 41.6407 34.5162 54.1567 33.3573 60.1167Z" fill="white"/>
<path d="M17.4639 21.8733C15.9733 28.8267 20.4439 50.68 22.9273 61.6067C19.4504 50.1833 11.9995 30.3167 12 21.8733C12.0004 16.3875 19.9467 3 32.8604 3C45.774 3 53.2234 12.9333 54.2167 21.8733C55.0114 29.0253 47.9258 51.3422 44.2837 61.6067C45.7737 51.1767 50.74 28.33 49.747 21.8733C48.4092 13.1747 40.807 8.46334 32.8604 8.46334C24.9137 8.46334 18.9797 14.8024 17.4639 21.8733Z" fill="white"/>
<circle cx="33.3566" cy="24.3567" r="12.4167" fill="white"/>
</svg>
