<svg width="65" height="65" viewBox="0 0 65 65" fill="none" xmlns="http://www.w3.org/2000/svg">
<path d="M20.1993 13.9239C21.392 13.9239 27.903 7.71781 31.3818 4.24307C31.9816 3.6474 32.1273 4.24324 32.1273 4.98887L29 15.5C27.5 15.5 26 15.5 25.1773 15.5284L24.5 17.5C25.4463 17.8676 27.9666 18.3224 28.5 18.5L26.2751 33.9958C26.2111 34.4414 25.8294 34.7723 25.3792 34.7723C24.964 34.7723 24.602 34.4898 24.5012 34.087L22.4364 25.8373C20.4485 28.071 16.1745 34.0277 14.9818 39.9844C13.4909 47.4303 16.4727 50.4086 17.2182 51.8978C17.8145 53.0891 16.9697 53.3869 16.4727 53.3869C14.9818 51.8978 12 47.1324 12 39.9844C12 32.8364 17.9632 21.618 20.9448 16.9022C20.1993 15.9095 19.0066 13.9239 20.1993 13.9239Z" fill="white"/>
<path d="M31.1341 22.7167C30.5519 24.1748 29.1455 27.9415 29.1455 30.3034C29.1455 32.6835 30.5737 36.9657 31.1474 38.5899C31.2862 38.9828 31.6578 39.2384 32.0745 39.2384H32.8977C33.328 39.2384 33.7105 38.9635 33.8425 38.554C34.6268 36.1219 35.8545 31.925 35.8545 30.3034C35.8545 28.6924 34.6429 24.934 33.8581 22.7544C33.7163 22.3606 33.3402 22.1027 32.9216 22.1049L32.0372 22.1095C31.6392 22.1116 31.2817 22.3471 31.1341 22.7167Z" fill="white"/>
<path d="M28.4 41.4721C28.4 45.6418 30.6364 50.4072 32.1273 51.1518C33.6182 50.4072 35.8545 47.4288 35.8545 41.4721C36.103 40.7276 36.7491 39.6851 37.3455 41.4721C37.5939 44.9469 37.3455 52.9388 34.3636 57.1084L32.8727 59.3422C32.6242 59.8386 31.9782 60.5335 31.3818 59.3422L29.8909 57.1084C27.6545 53.3855 26.1636 43.7059 26.9091 41.4721C27.5055 39.6851 28.1515 40.7276 28.4 41.4721Z" fill="white"/>
<path d="M44.0552 16.9072C44.8007 15.9144 45.9934 13.9289 44.8007 13.9289C43.0121 13.9433 36.6005 7.481 33.6182 4.24805C33.0184 3.65238 32.8727 4.24822 32.8727 4.99385L35.0136 15.5C36.5136 15.5 38.0136 15.5 38.8364 15.5284L39.5136 17.5C38.5673 17.8676 36.0471 18.3224 35.5136 18.5L38.6856 34.0215C38.7736 34.4521 39.1499 34.763 39.5893 34.7683C40.0219 34.7736 40.4014 34.481 40.5065 34.0613L42.5636 25.8422C44.5515 28.076 48.8255 34.0327 50.0182 39.9894C51.5091 47.4352 48.5273 50.4136 47.7818 51.9027C47.1855 53.0941 48.0303 53.3919 48.5273 53.3919C50.0182 51.9027 53 47.1374 53 39.9894C53 32.8413 47.0368 21.6229 44.0552 16.9072Z" fill="white"/>
</svg>
