<svg width="768" height="133" viewBox="0 0 768 133" fill="none" xmlns="http://www.w3.org/2000/svg">
<path d="M0 19.7468V0H14.581L37.2626 23.038V32.9114L50.2235 46.0759H94.7765L108.547 32.9114V23.038L129.609 0H145V19.7468L131.229 32.9114V42.7848L108.547 65H38.0726L13.7709 42.7848V32.9114L0 19.7468Z" fill="#E83F2F"/>
<path d="M668 68H521V88.3125L544.124 110.25H631.663L635.792 114.312H521V133H668V113.5L642.399 91.5625H557.337L553.208 87.5H668V68Z" fill="#E83F2F"/>
<path d="M518 68H298V87.5H400.667V114.312H298V133H518V114.312H422.667V87.5H518V68Z" fill="#E83F2F"/>
<path d="M766 0H669V19.8H708.608V47.025H669V66H766V47.025H730.433V19.8H766V0Z" fill="#E83F2F"/>
<path d="M371 0H148V18.975L159.436 30.525H172.505L174.139 32.175L172.505 33.825H159.436L148 45.375V66H371V47.025H180.674L185.575 42.075H335.059V23.1H185.575L180.674 19.8H371V0Z" fill="#E83F2F"/>
<path d="M34.8778 87.5H146V68H23.5222L0 89.125V111.062L23.5222 133H146V115.125L120.044 91.5625H36.5V110.25H107.878L113.556 114.312H34.8778L23.5222 102.938H13.7889L12.9778 101.312L13.7889 99.6875H23.5222L34.8778 87.5Z" fill="#E83F2F"/>
<path fill-rule="evenodd" clip-rule="evenodd" d="M373 66V21.45L396.593 0H517V18.15L504.797 30.525H490.153L488.525 32.175L490.153 33.825H504.797L517 46.2V66H495.034V54.45L482.017 41.25H394.966V66H373ZM408.797 18.15L404.729 21.45H481.203L485.271 19.8V18.15H408.797Z" fill="#E83F2F"/>
<path fill-rule="evenodd" clip-rule="evenodd" d="M150 68L150 133H171.994V110.25H259.972L272.191 124.062V133H295V113.5L279.522 99.6875L295 85.875V68H150ZM262.416 85.875H171.994V90.75H257.528L262.416 87.5V85.875Z" fill="#E83F2F"/>
<path fill-rule="evenodd" clip-rule="evenodd" d="M520 0V66H666V22.275L643.854 0H520ZM542.146 46.2V19.8H630.73L643.854 33V46.2H542.146Z" fill="#E83F2F"/>
<path d="M671 90.9211V111.276H682.102L695.542 125.046V133H718.331V115.467L706.06 101.697H699.048L697.88 100.5L699.048 99.3026H706.06L718.331 86.7303V68H695.542V75.9539L682.102 90.9211H671Z" fill="#E83F2F"/>
<path d="M768 90.9211V111.276H756.898L743.458 125.046V133H720.669V115.467L732.94 101.697H739.952L741.12 100.5L739.952 99.3026H732.94L720.669 86.7303V68H743.458V75.9539L756.898 90.9211H768Z" fill="#E83F2F"/>
</svg>
